<svg width="60" height="44" viewBox="0 0 60 44" fill="none" xmlns="http://www.w3.org/2000/svg">
<path d="M6.81999 43.6292V5.19101C5.25577 7.23034 2.94073 8.58989 0 8.83708V6.36517C4.31724 6.05618 6.31944 3.52247 7.44568 0.308988H9.69816V43.6292H6.81999Z" fill="#E8F8FF"/>
<path d="M25.7314 0C32.3011 0 35.6798 4.07865 35.6798 10.5056V11.8652C35.6798 16.3146 33.9905 19.8371 29.8609 20.9494C34.1156 22.1854 35.6798 25.7079 35.6798 30.2191V33.309C35.6798 39.6742 32.4263 44 25.7314 44C18.974 44 15.783 39.6742 15.783 33.309V30.2191C15.783 25.6461 17.2846 22.2472 21.6644 20.9494C17.4098 19.7753 15.783 16.4382 15.783 11.8652V10.5056C15.783 4.07865 19.0991 0 25.7314 0ZM25.7314 2.59551C21.0387 2.59551 18.6611 5.5 18.6611 10.5674V12.3595C18.6611 17.2416 21.1013 19.7753 25.7314 19.7753C30.3615 19.7753 32.8017 17.2416 32.8017 12.3595V10.5674C32.8017 5.5 30.3615 2.59551 25.7314 2.59551ZM25.7314 22.3708C20.9136 22.3708 18.6611 24.9045 18.6611 29.9719V33.2472C18.6611 38.2528 20.9762 41.4045 25.7314 41.4045C30.4866 41.4045 32.7391 38.2528 32.8017 33.2472V29.9719C32.8017 24.9045 30.4866 22.3708 25.7314 22.3708Z" fill="#E8F8FF"/>
<path d="M60 23.0506H51.0527V32.073H48.9253V23.0506H40.0406V20.9494H48.9253V12.0506H51.0527V20.9494H60V23.0506Z" fill="#E8F8FF"/>
</svg>
